# xmcd CD database file
#
# Track frame offsets:
#	150
#	16047
#	31046
#	46504
#	60836
#	74883
#	97230
#	112372
#	129030
#	138776
#	157508
#	177307
#	191999
#
# Disc length: 2878 seconds
#
# Revision: 0
# Processed by: cddbd v1.5.2PL0 Copyright (c) Steve Scherf et al.
# Submitted via: CDex 1.51
#
DISCID=a30b3c0d
DTITLE=Janet Klein and Her Parlor Boys - "Ready For You" Japan Tour 2008 (Disc-1: 1st. Set)
DYEAR=1900
DGENRE=Jazz
TTITLE0=Who's That Knocking At My Door
TTITLE1=Hello Bluebird
TTITLE2=I Care For You In A Great Big Way
TTITLE3=How Could Red Riding Hood? (Duet with Marquis Howell)
TTITLE4=Whistle And Blow Your Blues A Way
TTITLE5=Walking Baby Back Home
TTITLE6=Undecided Now
TTITLE7=Instrumental - Blue Room
TTITLE8=Sweet Papa, Momma's Getting Mad
TTITLE9=Mountain Greenery
TTITLE10=I'll Never Be The Same (On Vocal John Reynolds)
TTITLE11=Exactly Like You (Duet with HIDEKO from GYPSY VAGABONZ)
TTITLE12=My Blue Heaven (Duet with HIDEKO from GYPSY VAGABONZ)
EXTD=
EXTT0=
EXTT1=
EXTT2=
EXTT3=
EXTT4=
EXTT5=
EXTT6=
EXTT7=
EXTT8=
EXTT9=
EXTT10=
EXTT11=
EXTT12=
PLAYORDER=
